# xmcd CD database file
#
# Track frame offsets:
#	150
#	16157
#	32010
#	50439
#	66514
#	84162
#	99857
#	125127
#	145727
#	160713
#
# Disc length: 2382 seconds
#
# Revision: 3
# Processed by: cddbd v1.5.2PL0 Copyright (c) Steve Scherf et al.
# Submitted via: CDex 1.51
#
DISCID=78094c0a
DTITLE=Sex Machineguns - SMG
DYEAR=2011
DGENRE=Heavy Metal
TTITLE0=サンシャイン
TTITLE1=Tiger Tiger
TTITLE2=Image Death
TTITLE3=熟女ビーム
TTITLE4=アラジン
TTITLE5=こんにゃくパンチ
TTITLE6=東京よりさいたま
TTITLE7=メリーゴーランド
TTITLE8=イエローチューブ
TTITLE9=37564
EXTD=YEAR: 2011
EXTT0=
EXTT1=
EXTT2=
EXTT3=
EXTT4=
EXTT5=
EXTT6=
EXTT7=
EXTT8=
EXTT9=
PLAYORDER=
